<?xml version="1.0" encoding="utf-8"?>
<!-- Generator: Adobe Illustrator 16.0.0, SVG Export Plug-In . SVG Version: 6.00 Build 0)  -->
<!DOCTYPE svg PUBLIC "-//W3C//DTD SVG 1.1//EN" "http://www.w3.org/Graphics/SVG/1.1/DTD/svg11.dtd">
<svg version="1.1" id="Layer_1" xmlns="http://www.w3.org/2000/svg" xmlns:xlink="http://www.w3.org/1999/xlink" x="0px" y="0px"
	 width="122px" height="101.998px" viewBox="0 0 122 101.998" enable-background="new 0 0 122 101.998" xml:space="preserve">
<g>
	<g>
		<path fill-rule="evenodd" clip-rule="evenodd" fill="#FFFFFF" d="M101.23,28.51c-1.788,0.534-2.979,0.89-4.352,1.299
			c-0.471-2.312-2.005-2.412-3.944-2.29c-5.687,0.359-9.887-2.186-13.027-6.979c0.13,0.516,0.233,1.041,0.4,1.544
			c0.197,0.591,0.451,1.163,0.607,1.56c-2.646,0.671-5.232,1.328-7.788,1.977c0.159-1.461,0.356-3.27,0.554-5.08
			c-0.165-0.028-0.33-0.057-0.495-0.084c-0.222,0.914-0.371,1.854-0.676,2.74c-1.428,4.166-4.324,6.815-8.495,8.146
			c-1.405,0.448-2.807,0.924-4.168,1.488c-3.091,1.281-4.252,4.028-4.778,6.997c-0.145,0.818,0.87,1.841,1.379,2.819
			c-4.435,0.649-5.344-0.012-4.422-4.127c0.761-3.397,2.118-6.707,3.611-9.866c0.502-1.063,2.238-1.542,3.446-2.311
			c-0.445-1.252-0.884-2.49-1.323-3.727c-4.62,1.488-7.131-0.83-6.194-6.02c0.242,1.251,0.404,2.525,0.744,3.75
			c0.565,2.037,2.359,2.925,4.049,1.929c0.642-0.379,1.228-1.195,1.424-1.924c0.591-2.185,1.97-3.511,4.002-4.289
			c0.329-0.125,0.651-0.311,0.992-0.355c5.951-0.79,10.399-4.231,14.794-7.993c7.531-6.446,15.378-5.8,22.402,1.619
			c-0.503,0.451-1.006,0.899-1.182,1.057c1.867,0.189,4.032,0.083,5.975,0.692c2.089,0.655,3.25,2.544,3.871,4.793
			c-1.651-0.821-3.208-1.594-4.336-2.154c-1.349,3.175-2.479,6.135-3.898,8.947c-0.326,0.646-1.659,1.062-2.521,1.049
			c-0.476-0.006-1.146-1.054-1.367-1.747c-1.025-3.227-2.758-4.354-5.127-3.159c-0.163,0.082-0.26,0.294-0.446,0.514
			c0.804,0,1.53,0,2.346,0c-0.033,0.323,0.013,0.556-0.081,0.687c-1.982,2.756-1.358,4.505,1.977,5.441
			c1.152,0.323,2.389,0.438,3.457,0.929C99.489,26.772,100.144,27.588,101.23,28.51z"/>
		<path fill-rule="evenodd" clip-rule="evenodd" fill="#FFFFFF" d="M66.811,32.079c0.458,2.691,2.047,3.979,4.31,4.677
			c2.005,0.617,3.688,1.636,4.16,4.176c-1.436,0-2.722,0-4.185,0c0.219-1.895-1.104-2.433-2.729-2.736
			c-1.24-0.231-2.452-0.623-3.69-0.862c-1.759-0.34-2.999-1.123-2.973-3.427C63.234,33.359,64.899,32.764,66.811,32.079z"/>
		<path fill-rule="evenodd" clip-rule="evenodd" fill="#FFFFFF" d="M84.338,27.205c3.49,2.483,9.14,1.192,11.368,6.706
			c-1.57,0-2.783,0-4.181,0c0.101-2.151-1.45-2.745-3.14-3.442c-1.571-0.649-2.964-1.73-4.436-2.622
			C84.079,27.632,84.209,27.419,84.338,27.205z"/>
		<path fill-rule="evenodd" clip-rule="evenodd" fill="#FFFFFF" d="M105.852,9.422c-1.724-0.489-3.447-0.979-5.172-1.467
			c0.122-0.369,0.245-0.737,0.368-1.105c1.69,0.6,3.381,1.199,5.071,1.799C106.029,8.907,105.94,9.165,105.852,9.422z"/>
	</g>
</g>
<g>
	<path fill="#FFFFFF" d="M40.707,93.651c0-0.253-0.067-0.458-0.202-0.616c-0.134-0.159-0.31-0.291-0.526-0.396
		c-0.216-0.104-0.466-0.196-0.748-0.275c-0.282-0.079-0.571-0.162-0.867-0.25c-0.345-0.11-0.667-0.238-0.965-0.387
		c-0.298-0.148-0.558-0.33-0.777-0.547c-0.219-0.216-0.392-0.478-0.517-0.785c-0.126-0.306-0.189-0.662-0.189-1.068
		c0-0.515,0.094-0.984,0.284-1.409c0.189-0.425,0.458-0.788,0.806-1.089c0.348-0.302,0.769-0.534,1.261-0.698
		c0.493-0.165,1.044-0.247,1.652-0.247c0.647,0,1.288,0.07,1.924,0.21c0.635,0.139,1.194,0.313,1.675,0.522l-0.353,1.667
		c-0.619-0.247-1.17-0.424-1.655-0.533c-0.486-0.11-0.972-0.165-1.459-0.165c-0.652,0-1.162,0.137-1.529,0.411
		c-0.367,0.273-0.55,0.641-0.55,1.101c0,0.247,0.049,0.457,0.148,0.629c0.099,0.173,0.23,0.318,0.395,0.437s0.357,0.219,0.579,0.304
		c0.222,0.084,0.456,0.166,0.703,0.243c0.355,0.109,0.711,0.227,1.068,0.354c0.355,0.125,0.676,0.288,0.962,0.488
		c0.284,0.2,0.515,0.456,0.69,0.77c0.175,0.311,0.263,0.698,0.263,1.158c0,0.597-0.114,1.131-0.342,1.602
		c-0.227,0.472-0.55,0.872-0.97,1.201c-0.419,0.328-0.927,0.579-1.524,0.752c-0.597,0.172-1.263,0.258-1.997,0.258
		c-0.385,0-0.753-0.024-1.106-0.073c-0.354-0.05-0.677-0.111-0.97-0.185c-0.293-0.074-0.552-0.157-0.777-0.247
		c-0.224-0.09-0.402-0.177-0.534-0.259l0.345-1.66c0.416,0.203,0.884,0.374,1.405,0.514c0.521,0.14,1.072,0.21,1.653,0.21
		c0.415,0,0.792-0.044,1.129-0.132c0.337-0.087,0.625-0.212,0.862-0.373c0.239-0.162,0.424-0.365,0.556-0.609
		C40.642,94.233,40.707,93.958,40.707,93.651z"/>
	<path fill="#FFFFFF" d="M50.204,85.883c0.642,0,1.224,0.089,1.747,0.268c0.523,0.178,0.971,0.443,1.344,0.797
		c0.373,0.354,0.66,0.792,0.863,1.315c0.203,0.522,0.304,1.127,0.304,1.813c0,0.426-0.045,0.9-0.135,1.421
		c-0.091,0.521-0.237,1.048-0.439,1.582c-0.203,0.534-0.466,1.056-0.79,1.562c-0.324,0.508-0.717,0.957-1.18,1.349
		c-0.463,0.392-1.001,0.707-1.614,0.945c-0.614,0.238-1.313,0.356-2.096,0.356c-0.641,0-1.224-0.089-1.747-0.267
		s-0.971-0.443-1.343-0.797c-0.374-0.354-0.66-0.791-0.863-1.315c-0.203-0.522-0.305-1.127-0.305-1.813
		c0-0.427,0.045-0.901,0.136-1.422c0.09-0.52,0.237-1.047,0.439-1.582c0.203-0.534,0.466-1.055,0.789-1.562
		c0.324-0.506,0.717-0.955,1.18-1.348c0.463-0.392,1.001-0.707,1.614-0.945C48.723,86.002,49.421,85.883,50.204,85.883z
		 M50.065,87.584c-0.445,0-0.852,0.077-1.225,0.23c-0.373,0.153-0.711,0.363-1.015,0.629c-0.304,0.266-0.572,0.576-0.805,0.933
		s-0.427,0.737-0.583,1.142c-0.156,0.406-0.275,0.827-0.354,1.263c-0.079,0.435-0.119,0.861-0.119,1.277
		c0,0.417,0.055,0.782,0.164,1.099c0.11,0.314,0.268,0.578,0.473,0.792c0.205,0.214,0.456,0.374,0.752,0.48
		c0.296,0.107,0.627,0.161,0.995,0.161c0.443,0,0.852-0.077,1.224-0.23c0.374-0.153,0.711-0.363,1.016-0.629
		c0.304-0.265,0.573-0.576,0.806-0.934c0.233-0.355,0.427-0.736,0.583-1.142c0.155-0.405,0.273-0.825,0.354-1.262
		c0.079-0.436,0.118-0.861,0.118-1.277c0-0.833-0.212-1.464-0.637-1.891C51.387,87.798,50.804,87.584,50.065,87.584z"/>
	<path fill="#FFFFFF" d="M56.794,95.401h5.186l-0.345,1.686h-7.193l2.277-10.998h2.005L56.794,95.401z"/>
	<path fill="#FFFFFF" d="M67.195,95.59c0.569,0,1.067-0.12,1.491-0.357c0.425-0.239,0.777-0.621,1.058-1.146
		c0.099-0.192,0.187-0.412,0.267-0.658c0.079-0.246,0.157-0.548,0.233-0.904l1.332-6.436h2.006l-1.414,6.839
		c-0.087,0.411-0.177,0.762-0.267,1.052c-0.091,0.291-0.196,0.56-0.317,0.806c-0.181,0.367-0.402,0.705-0.665,1.015
		c-0.264,0.31-0.58,0.574-0.95,0.793c-0.369,0.22-0.799,0.391-1.285,0.514c-0.488,0.124-1.047,0.185-1.678,0.185
		c-0.689,0-1.275-0.09-1.755-0.271c-0.479-0.181-0.868-0.424-1.167-0.731c-0.299-0.307-0.515-0.663-0.648-1.068
		c-0.136-0.405-0.202-0.833-0.202-1.282c0-0.264,0.018-0.519,0.054-0.769c0.036-0.249,0.08-0.502,0.136-0.76l1.307-6.321h2.006
		l-1.348,6.542c-0.045,0.192-0.077,0.376-0.099,0.552c-0.022,0.175-0.033,0.342-0.033,0.501c0,0.263,0.033,0.51,0.099,0.74
		s0.173,0.432,0.324,0.604c0.151,0.174,0.35,0.31,0.596,0.411C66.521,95.54,66.828,95.59,67.195,95.59z"/>
	<path fill="#FFFFFF" d="M77.376,97.086H75.37l1.932-9.313h-3.451l0.336-1.686h8.918l-0.346,1.686h-3.451L77.376,97.086z"/>
	<path fill="#FFFFFF" d="M81.604,97.086l2.277-10.998h2.006L83.61,97.086H81.604z"/>
	<path fill="#FFFFFF" d="M92.082,85.883c0.641,0,1.223,0.089,1.747,0.268c0.522,0.178,0.971,0.443,1.343,0.797
		s0.66,0.792,0.862,1.315c0.203,0.522,0.305,1.127,0.305,1.813c0,0.426-0.045,0.9-0.136,1.421c-0.09,0.521-0.236,1.048-0.439,1.582
		s-0.466,1.056-0.789,1.562c-0.323,0.508-0.716,0.957-1.179,1.349c-0.464,0.392-1.003,0.707-1.615,0.945
		c-0.614,0.238-1.313,0.356-2.097,0.356c-0.641,0-1.224-0.089-1.747-0.267c-0.522-0.178-0.971-0.443-1.343-0.797
		s-0.661-0.791-0.863-1.315c-0.202-0.522-0.304-1.127-0.304-1.813c0-0.427,0.046-0.901,0.136-1.422
		c0.09-0.52,0.236-1.047,0.44-1.582c0.202-0.534,0.465-1.055,0.788-1.562c0.322-0.506,0.716-0.955,1.179-1.348
		c0.464-0.392,1.002-0.707,1.615-0.945C90.6,86.002,91.299,85.883,92.082,85.883z M91.941,87.584c-0.443,0-0.852,0.077-1.224,0.23
		c-0.373,0.153-0.712,0.363-1.016,0.629s-0.573,0.576-0.806,0.933s-0.428,0.737-0.584,1.142c-0.155,0.406-0.273,0.827-0.353,1.263
		c-0.08,0.435-0.12,0.861-0.12,1.277c0,0.417,0.056,0.782,0.165,1.099c0.109,0.314,0.267,0.578,0.472,0.792
		c0.206,0.214,0.457,0.374,0.752,0.48c0.297,0.107,0.628,0.161,0.995,0.161c0.444,0,0.853-0.077,1.225-0.23
		c0.373-0.153,0.712-0.363,1.016-0.629c0.305-0.265,0.572-0.576,0.805-0.934c0.233-0.355,0.429-0.736,0.584-1.142
		c0.156-0.405,0.274-0.825,0.353-1.262c0.081-0.436,0.121-0.861,0.121-1.277c0-0.833-0.213-1.464-0.638-1.891
		C93.264,87.798,92.682,87.584,91.941,87.584z"/>
	<path fill="#FFFFFF" d="M103.503,97.086l-2.261-4.874c-0.553-1.184-0.994-2.238-1.323-3.165h-0.05
		c-0.104,0.91-0.278,1.953-0.525,3.132l-1.019,4.907h-2.007l2.277-10.998h1.948l2.26,4.874c0.554,1.179,0.995,2.232,1.324,3.164
		h0.05c0.07-0.718,0.245-1.762,0.524-3.131l1.02-4.907h2.006l-2.277,10.998H103.503z"/>
	<path fill="#FFFFFF" d="M113.059,93.651c0-0.253-0.067-0.458-0.202-0.616c-0.135-0.159-0.309-0.291-0.525-0.396
		c-0.216-0.104-0.466-0.196-0.748-0.275s-0.57-0.162-0.867-0.25c-0.345-0.11-0.666-0.238-0.965-0.387
		c-0.3-0.148-0.558-0.33-0.777-0.547c-0.219-0.216-0.393-0.478-0.519-0.785c-0.125-0.306-0.188-0.662-0.188-1.068
		c0-0.515,0.095-0.984,0.284-1.409c0.188-0.425,0.457-0.788,0.805-1.089c0.349-0.302,0.77-0.534,1.263-0.698
		c0.492-0.165,1.043-0.247,1.652-0.247c0.646,0,1.287,0.07,1.922,0.21c0.637,0.139,1.195,0.313,1.677,0.522l-0.353,1.667
		c-0.619-0.247-1.172-0.424-1.657-0.533c-0.484-0.11-0.972-0.165-1.458-0.165c-0.652,0-1.162,0.137-1.528,0.411
		c-0.368,0.273-0.551,0.641-0.551,1.101c0,0.247,0.049,0.457,0.147,0.629c0.098,0.173,0.23,0.318,0.395,0.437
		s0.357,0.219,0.579,0.304c0.222,0.084,0.457,0.166,0.703,0.243c0.355,0.109,0.712,0.227,1.069,0.354
		c0.355,0.125,0.675,0.288,0.961,0.488c0.284,0.2,0.515,0.456,0.689,0.77c0.176,0.311,0.263,0.698,0.263,1.158
		c0,0.597-0.113,1.131-0.34,1.602c-0.229,0.472-0.551,0.872-0.97,1.201c-0.421,0.328-0.928,0.579-1.524,0.752
		c-0.599,0.172-1.263,0.258-1.997,0.258c-0.384,0-0.752-0.024-1.106-0.073c-0.354-0.05-0.678-0.111-0.97-0.185
		c-0.294-0.074-0.552-0.157-0.777-0.247c-0.224-0.09-0.402-0.177-0.533-0.259l0.344-1.66c0.417,0.203,0.886,0.374,1.406,0.514
		c0.52,0.14,1.071,0.21,1.652,0.21c0.417,0,0.793-0.044,1.13-0.132c0.337-0.087,0.625-0.212,0.863-0.373
		c0.239-0.162,0.424-0.365,0.555-0.609C112.992,94.233,113.059,93.958,113.059,93.651z"/>
</g>
<g>
	<g>
		<path fill="#FFFFFF" d="M15.738,81.01c-1.659,0-3.126-0.183-4.362-0.539c-1.297-0.377-2.394-0.934-3.265-1.657
			c-0.906-0.753-1.584-1.685-2.015-2.773c-0.41-1.028-0.618-2.192-0.618-3.46c0-0.418,0.023-0.913,0.071-1.47
			c0.049-0.579,0.159-1.271,0.325-2.058L8.91,54.416H2.881l1.97-9.368h5.992l1.897-9.021h10.79l-1.864,9.021h8.393l-1.969,9.368
			h-8.383l-2.96,14.394c-0.109,0.479-0.187,0.876-0.235,1.205c-0.044,0.294-0.067,0.54-0.067,0.735c0,0.413,0.081,0.555,0.088,0.565
			l0,0c0.009,0,0.339,0.193,1.468,0.193c0.685,0,1.591-0.08,2.695-0.235c1.128-0.16,2.147-0.347,3.03-0.558l2.18-0.52L24,79.828
			l-0.863,0.234c-1.126,0.304-2.363,0.54-3.677,0.703C18.149,80.928,16.897,81.01,15.738,81.01z"/>
	</g>
	<g>
		<path fill="#FFFFFF" d="M41.618,81.01c-2.03,0-3.917-0.281-5.607-0.838c-1.743-0.572-3.258-1.443-4.503-2.588
			c-1.254-1.153-2.234-2.614-2.913-4.346c-0.662-1.693-0.997-3.683-0.997-5.916c0-2.967,0.412-5.854,1.225-8.582
			c0.823-2.762,2.06-5.242,3.679-7.368c1.642-2.156,3.711-3.898,6.152-5.179c2.461-1.291,5.329-1.945,8.523-1.945
			c2.052,0,3.946,0.282,5.628,0.838c1.73,0.573,3.238,1.442,4.482,2.586c1.257,1.157,2.238,2.626,2.913,4.366
			c0.661,1.701,0.996,3.684,0.996,5.897c0,2.965-0.411,5.854-1.224,8.582c-0.823,2.763-2.061,5.24-3.679,7.367
			c-1.643,2.157-3.713,3.9-6.151,5.18C47.68,80.356,44.813,81.01,41.618,81.01z M46.511,53.583c-0.844,0-1.623,0.166-2.312,0.494
			c-0.725,0.343-1.389,0.828-1.974,1.44c-0.617,0.646-1.161,1.408-1.618,2.265c-0.478,0.894-0.886,1.871-1.212,2.901
			c-0.331,1.045-0.583,2.13-0.748,3.225c-0.166,1.098-0.25,2.191-0.25,3.247c0,1.498,0.325,2.662,0.965,3.459
			c0.572,0.714,1.527,1.061,2.922,1.061c0.858,0,1.614-0.161,2.312-0.493c0.725-0.345,1.39-0.829,1.974-1.442
			c0.62-0.648,1.172-1.413,1.642-2.274c0.483-0.884,0.889-1.854,1.203-2.877c0.321-1.046,0.569-2.141,0.734-3.252
			c0.167-1.112,0.251-2.211,0.251-3.265c0-1.472-0.329-2.624-0.976-3.421C48.839,53.933,47.887,53.583,46.511,53.583z"/>
	</g>
	<g>
		<path fill="#FFFFFF" d="M59.351,80.177l7.287-35.129h9.299v2.169c0.711-0.579,1.455-1.083,2.228-1.509
			c1.762-0.969,3.832-1.459,6.152-1.459c0.89,0,1.823,0.072,2.777,0.215l1.505,0.226l-2.142,10.287l-1.434-0.333
			c-0.846-0.196-1.664-0.296-2.438-0.296c-0.691,0-1.407,0.08-2.126,0.235c-0.694,0.15-1.382,0.398-2.042,0.738
			c-0.651,0.334-1.277,0.786-1.863,1.344c-0.569,0.542-1.078,1.239-1.513,2.07c-0.211,0.403-0.424,0.909-0.633,1.506
			c-0.212,0.604-0.435,1.472-0.664,2.58l-3.6,17.355H59.351z"/>
	</g>
	<g>
		<path fill="#FFFFFF" d="M99.865,81.01c-2.029,0-3.917-0.281-5.607-0.838C92.515,79.6,91,78.729,89.754,77.584
			c-1.254-1.153-2.233-2.614-2.911-4.346c-0.662-1.693-0.997-3.683-0.997-5.916c0-2.967,0.411-5.854,1.225-8.582
			c0.822-2.762,2.06-5.242,3.679-7.368c1.641-2.156,3.711-3.898,6.152-5.179c2.461-1.291,5.33-1.945,8.523-1.945
			c2.052,0,3.946,0.282,5.628,0.838c1.73,0.573,3.237,1.442,4.483,2.586c1.258,1.157,2.236,2.626,2.913,4.366
			c0.661,1.701,0.996,3.684,0.996,5.897c0,2.965-0.412,5.854-1.225,8.582c-0.823,2.763-2.061,5.24-3.678,7.367
			c-1.645,2.157-3.714,3.9-6.153,5.18C105.928,80.356,103.06,81.01,99.865,81.01z M104.758,53.583c-0.844,0-1.622,0.166-2.311,0.494
			c-0.726,0.343-1.388,0.828-1.975,1.44c-0.615,0.646-1.159,1.408-1.617,2.265c-0.479,0.894-0.886,1.871-1.214,2.901
			c-0.33,1.045-0.582,2.13-0.747,3.225c-0.166,1.098-0.25,2.191-0.25,3.247c0,1.498,0.324,2.662,0.964,3.459
			c0.572,0.714,1.528,1.061,2.923,1.061c0.857,0,1.614-0.161,2.312-0.493c0.725-0.345,1.39-0.829,1.974-1.442
			c0.621-0.648,1.173-1.413,1.642-2.274c0.483-0.884,0.889-1.854,1.203-2.877c0.32-1.046,0.568-2.141,0.735-3.252
			c0.165-1.112,0.25-2.211,0.25-3.265c0-1.472-0.329-2.624-0.977-3.421C107.087,53.933,106.135,53.583,104.758,53.583z"/>
	</g>
</g>
</svg>
